<svg width="23" height="23" fill="none" xmlns="http://www.w3.org/2000/svg"><g clip-path="url('#clip0_588_11438')" fill="#89D7D7"><path d="M22.978 6.762c-.054-1.222-.252-2.062-.535-2.79a5.613 5.613 0 0 0-1.33-2.04A5.661 5.661 0 0 0 19.078.607c-.733-.284-1.568-.481-2.79-.535C15.056.014 14.665 0 11.543 0 8.42 0 8.029.014 6.803.067 5.58.121 4.74.32 4.013.602a5.612 5.612 0 0 0-2.04 1.33A5.663 5.663 0 0 0 .647 3.967C.364 4.7.167 5.535.112 6.757.054 7.99.041 8.38.041 11.503c0 3.123.013 3.514.067 4.74.054 1.223.252 2.063.535 2.79a5.672 5.672 0 0 0 1.33 2.04 5.66 5.66 0 0 0 2.035 1.326c.732.283 1.568.48 2.79.535 1.227.054 1.618.067 4.74.067 3.123 0 3.514-.013 4.74-.067 1.223-.054 2.063-.252 2.79-.535a5.883 5.883 0 0 0 3.366-3.365c.283-.733.48-1.569.535-2.79.053-1.227.067-1.618.067-4.74 0-3.123-.005-3.514-.058-4.74Zm-2.072 9.39c-.05 1.124-.238 1.73-.395 2.135a3.815 3.815 0 0 1-2.184 2.184c-.404.157-1.015.345-2.134.395-1.213.054-1.577.067-4.646.067-3.068 0-3.437-.013-4.646-.067-1.123-.05-1.73-.238-2.134-.395a3.54 3.54 0 0 1-1.32-.859 3.575 3.575 0 0 1-.859-1.32c-.157-.405-.346-1.016-.395-2.135-.054-1.213-.068-1.577-.068-4.646s.014-3.437.068-4.646c.05-1.123.238-1.73.395-2.134.184-.499.476-.952.863-1.32a3.57 3.57 0 0 1 1.32-.859c.405-.157 1.016-.346 2.135-.395 1.213-.054 1.577-.068 4.646-.068 3.073 0 3.437.014 4.646.068 1.123.05 1.73.238 2.134.395.498.184.952.476 1.32.858.383.373.675.822.859 1.321.157.405.346 1.016.395 2.134.054 1.214.068 1.577.068 4.646s-.014 3.428-.068 4.642Z"/><path d="M11.543 5.594a5.91 5.91 0 0 0-5.909 5.908 5.91 5.91 0 0 0 5.909 5.908 5.91 5.91 0 0 0 5.908-5.908 5.91 5.91 0 0 0-5.908-5.908Zm0 9.74a3.833 3.833 0 1 1 .001-7.666 3.833 3.833 0 0 1-.001 7.667ZM19.064 5.36a1.38 1.38 0 1 1-2.759 0 1.38 1.38 0 0 1 2.759 0Z"/></g><defs><clipPath id="clip0_588_11438"><path fill="#fff" d="M0 0h23v23H0z"/></clipPath></defs></svg>